<svg
    xmlns="http://www.w3.org/2000/svg"
    xmlns:xlink="http://www.w3.org/1999/xlink"
>
    <defs>
        <symbol
            xmlns="http://www.w3.org/2000/svg"
            fill="none"
            id="email-icon"
            viewBox="0 0 24 24"
            strokeWidth="2"
            stroke="currentColor"
        >
            <path
                strokeLinecap="round"
                strokeLinejoin="round"
                d="M16 12h4m0 0v8m0-8l-4 4m0 0l-4-4m4 4V4m0 16l4-4m0 0l4-4"
            />
        </symbol>

        <symbol
            xmlns="http://www.w3.org/2000/svg"
            fill="none"
            viewBox="0 0 24 24"
            id="password-icon"
            strokeWidth="2"
            stroke="currentColor"
        >
            <path
                strokeLinecap="round"
                strokeLinejoin="round"
                d="M12 11c2.5 0 4-1.5 4-3.5S14.5 4 12 4s-4 1.5-4 3.5S9.5 11 12 11zm0 0v5m0 0H9m3 0h3"
            />
        </symbol>

        <symbol
            xmlns="http://www.w3.org/2000/svg"
            fill="none"
            viewBox="0 0 24 24"
            id="user-icon"
            strokeWidth="2"
            stroke="currentColor"
        >
            <path
                strokeLinecap="round"
                strokeLinejoin="round"
                d="M16 21v-2a4 4 0 00-4-4H8a4 4 0 00-4 4v2M12 11a4 4 0 100-8 4 4 0 000 8z"
            />
        </symbol>

        <symbol
            width="24"
            height="17"
            id="visible"
            viewBox="0 0 24 17"
            fill="none"
            xmlns="http://www.w3.org/2000/svg"
        >
            <path
                d="M12.0024 13.1732C13.3245 13.1732 14.4473 12.7105 15.3709 11.7851C16.2945 10.8598 16.7563 9.73607 16.7563 8.41404C16.7563 7.09201 16.2936 5.96919 15.3683 5.04558C14.4429 4.12197 13.3192 3.66017 11.9972 3.66017C10.6752 3.66017 9.55235 4.12285 8.62874 5.04821C7.70513 5.97357 7.24333 7.09726 7.24333 8.41929C7.24333 9.74132 7.70601 10.8641 8.63137 11.7878C9.55673 12.7114 10.6804 13.1732 12.0024 13.1732ZM11.9998 11.5667C11.1248 11.5667 10.3811 11.2604 9.76858 10.6479C9.15608 10.0354 8.84983 9.29167 8.84983 8.41667C8.84983 7.54167 9.15608 6.79792 9.76858 6.18542C10.3811 5.57292 11.1248 5.26667 11.9998 5.26667C12.8748 5.26667 13.6186 5.57292 14.2311 6.18542C14.8436 6.79792 15.1498 7.54167 15.1498 8.41667C15.1498 9.29167 14.8436 10.0354 14.2311 10.6479C13.6186 11.2604 12.8748 11.5667 11.9998 11.5667ZM11.9998 16.5833C9.5438 16.5833 7.29758 15.9282 5.26116 14.6178C3.22474 13.3076 1.59928 11.5839 0.384784 9.44654C0.287561 9.27893 0.216492 9.11006 0.171575 8.93992C0.126853 8.76978 0.104492 8.59517 0.104492 8.41608C0.104492 8.237 0.126853 8.06258 0.171575 7.89283C0.216492 7.72308 0.287561 7.5544 0.384784 7.38679C1.59928 5.24946 3.22474 3.52571 5.26116 2.21554C7.29758 0.905181 9.5438 0.25 11.9998 0.25C14.4559 0.25 16.7021 0.905181 18.7385 2.21554C20.7749 3.52571 22.4004 5.24946 23.6149 7.38679C23.7121 7.5544 23.7832 7.72328 23.8281 7.89342C23.8728 8.06356 23.8952 8.23817 23.8952 8.41725C23.8952 8.59633 23.8728 8.77075 23.8281 8.9405C23.7832 9.11025 23.7121 9.27893 23.6149 9.44654C22.4004 11.5839 20.7749 13.3076 18.7385 14.6178C16.7021 15.9282 14.4559 16.5833 11.9998 16.5833ZM11.9998 14.8333C14.197 14.8333 16.2144 14.2549 18.0519 13.0979C19.8894 11.941 21.2943 10.3806 22.2665 8.41667C21.2943 6.45278 19.8894 4.89236 18.0519 3.73542C16.2144 2.57847 14.197 2 11.9998 2C9.8026 2 7.78524 2.57847 5.94774 3.73542C4.11024 4.89236 2.70538 6.45278 1.73316 8.41667C2.70538 10.3806 4.11024 11.941 5.94774 13.0979C7.78524 14.2549 9.8026 14.8333 11.9998 14.8333Z"
                fill="#FFFFFF"
            />
        </symbol>

        <symbol
            width="26"
            height="23"
            id="invisible"
            viewBox="0 0 26 23"
            fill="none"
            xmlns="http://www.w3.org/2000/svg"
        >
            <path
                d="M16.2458 5.95C16.8097 6.51389 17.2229 7.15556 17.4854 7.875C17.7479 8.59444 17.8403 9.33333 17.7625 10.0917C17.7625 10.3833 17.6556 10.6313 17.4417 10.8354C17.2278 11.0396 16.975 11.1417 16.6833 11.1417C16.3917 11.1417 16.1438 11.0396 15.9396 10.8354C15.7354 10.6313 15.6333 10.3833 15.6333 10.0917C15.7306 9.58611 15.7014 9.1 15.5458 8.63333C15.3903 8.16667 15.1472 7.76806 14.8167 7.4375C14.4861 7.10694 14.0875 6.85417 13.6208 6.67917C13.1542 6.50417 12.6583 6.46528 12.1333 6.5625C11.8417 6.5625 11.5938 6.45556 11.3896 6.24167C11.1854 6.02778 11.0833 5.775 11.0833 5.48333C11.0833 5.19167 11.1854 4.94375 11.3896 4.73958C11.5938 4.53542 11.8417 4.43333 12.1333 4.43333C12.8722 4.35556 13.6014 4.44792 14.3208 4.71042C15.0403 4.97292 15.6819 5.38611 16.2458 5.95ZM12.5417 3.2375C12.1722 3.2375 11.8125 3.25208 11.4625 3.28125C11.1125 3.31042 10.7625 3.36389 10.4125 3.44167C10.0819 3.5 9.78542 3.45139 9.52292 3.29583C9.26042 3.14028 9.08056 2.90694 8.98333 2.59583C8.88611 2.28472 8.92014 1.98333 9.08542 1.69167C9.2507 1.4 9.48889 1.225 9.8 1.16667C10.2472 1.06944 10.6993 1.00139 11.1563 0.9625C11.6132 0.923611 12.075 0.904167 12.5417 0.904167C15.2056 0.904167 17.641 1.60417 19.8479 3.00417C22.0549 4.40417 23.7417 6.29028 24.9083 8.6625C24.9861 8.81806 25.0444 8.97847 25.0833 9.14375C25.1222 9.30903 25.1417 9.47917 25.1417 9.65417C25.1417 9.82917 25.1271 9.99931 25.0979 10.1646C25.0688 10.3299 25.0153 10.4903 24.9375 10.6458C24.5875 11.4236 24.1549 12.1528 23.6396 12.8333C23.1243 13.5139 22.5556 14.1361 21.9333 14.7C21.7 14.9139 21.4278 15.0014 21.1167 14.9625C20.8056 14.9236 20.5528 14.7681 20.3583 14.4958C20.1639 14.2236 20.0813 13.9271 20.1104 13.6062C20.1396 13.2854 20.2708 13.0181 20.5042 12.8042C20.9708 12.3569 21.3986 11.8708 21.7875 11.3458C22.1764 10.8208 22.5167 10.2569 22.8083 9.65417C21.8361 7.69028 20.4313 6.12986 18.5938 4.97292C16.7563 3.81597 14.7389 3.2375 12.5417 3.2375ZM12.5417 18.4042C9.93611 18.4042 7.55417 17.6993 5.39583 16.2896C3.2375 14.8799 1.53611 13.0278 0.291667 10.7333C0.194444 10.5778 0.121528 10.4076 0.0729167 10.2229C0.0243056 10.0382 0 9.84861 0 9.65417C0 9.45972 0.0194444 9.275 0.0583333 9.1C0.0972222 8.925 0.165278 8.75 0.2625 8.575C0.651389 7.79722 1.10347 7.05347 1.61875 6.34375C2.13403 5.63403 2.72222 4.9875 3.38333 4.40417L0.9625 1.95417C0.748611 1.72083 0.646528 1.44375 0.65625 1.12292C0.665972 0.802083 0.777778 0.534722 0.991667 0.320833C1.20556 0.106944 1.47778 0 1.80833 0C2.13889 0 2.41111 0.106944 2.625 0.320833L22.4583 20.1542C22.6722 20.3681 22.784 20.6354 22.7938 20.9562C22.8035 21.2771 22.6917 21.5542 22.4583 21.7875C22.2444 22.0014 21.9722 22.1083 21.6417 22.1083C21.3111 22.1083 21.0389 22.0014 20.825 21.7875L16.7417 17.7625C16.0611 17.9764 15.3708 18.1368 14.6708 18.2437C13.9708 18.3507 13.2611 18.4042 12.5417 18.4042ZM5.01667 6.0375C4.45278 6.54306 3.9375 7.09722 3.47083 7.7C3.00417 8.30278 2.60556 8.95417 2.275 9.65417C3.24722 11.6181 4.65208 13.1785 6.48958 14.3354C8.32708 15.4924 10.3444 16.0708 12.5417 16.0708C12.9306 16.0708 13.3097 16.0465 13.6792 15.9979C14.0486 15.9493 14.4278 15.8958 14.8167 15.8375L13.7667 14.7292C13.5528 14.7875 13.3486 14.8313 13.1542 14.8604C12.9597 14.8896 12.7556 14.9042 12.5417 14.9042C11.0833 14.9042 9.84375 14.3938 8.82292 13.3729C7.80208 12.3521 7.29167 11.1125 7.29167 9.65417C7.29167 9.44028 7.30625 9.23611 7.33542 9.04167C7.36458 8.84722 7.40833 8.64306 7.46667 8.42917L5.01667 6.0375Z"
                fill="#FFFFFF"
            />
        </symbol>

        <symbol xmlns="http://www.w3.org/2000/svg" id="add" height="24px" viewBox="0 -960 960 960"
            width="24px"
            fill="#5f6368">
            <path
                d="M440-440H240q-17 0-28.5-11.5T200-480q0-17 11.5-28.5T240-520h200v-200q0-17 11.5-28.5T480-760q17 0 28.5 11.5T520-720v200h200q17 0 28.5 11.5T760-480q0 17-11.5 28.5T720-440H520v200q0 17-11.5 28.5T480-200q-17 0-28.5-11.5T440-240v-200Z" />
        </symbol>

        <symbol width="12" height="7" viewBox="0 0 12 7" id="more" fill="none"
            xmlns="http://www.w3.org/2000/svg">
            <path
                d="M6.00005 4.19995L9.90005 0.299951C10.0834 0.116618 10.3167 0.024951 10.6 0.024951C10.8834 0.024951 11.1167 0.116618 11.3 0.299951C11.4834 0.483284 11.575 0.716618 11.575 0.999951C11.575 1.28328 11.4834 1.51662 11.3 1.69995L6.70005 6.29995C6.60005 6.39995 6.49172 6.47078 6.37505 6.51245C6.25838 6.55412 6.13338 6.57495 6.00005 6.57495C5.86672 6.57495 5.74172 6.55412 5.62505 6.51245C5.50838 6.47078 5.40005 6.39995 5.30005 6.29995L0.700049 1.69995C0.516715 1.51662 0.425049 1.28328 0.425049 0.999951C0.425049 0.716618 0.516715 0.483284 0.700049 0.299951C0.883382 0.116618 1.11672 0.024951 1.40005 0.024951C1.68338 0.024951 1.91672 0.116618 2.10005 0.299951L6.00005 4.19995Z"
                fill="#5F6368" />
        </symbol>

        <symbol width="15" height="8" id="expanded" viewBox="0 0 15 8" fill="none"
            xmlns="http://www.w3.org/2000/svg">
            <path
                d="M7.91742 5.68608L13.3152 0.287916C13.4988 0.104586 13.7295 0.0107132 14.0074 0.00629529C14.285 0.00209862 14.5199 0.0959721 14.7121 0.287916C14.904 0.48008 15 0.712885 15 0.986333C15 1.25978 14.904 1.49259 14.7121 1.68475L8.75598 7.64085C8.51633 7.88028 8.23681 8 7.91742 8C7.59803 8 7.31851 7.88028 7.07885 7.64085L1.12275 1.68475C0.939423 1.5012 0.84555 1.27049 0.841133 0.992629C0.836935 0.714985 0.930808 0.480081 1.12275 0.287917C1.31492 0.0959733 1.54772 1.17604e-06 1.82117 1.15213e-06C2.09462 1.12822e-06 2.32743 0.0959732 2.51959 0.287917L7.91742 5.68608Z"
                fill="#9D9EA2" />
        </symbol>

        <symbol width="8" height="15" id="expand" viewBox="0 0 8 15" fill="none"
            xmlns="http://www.w3.org/2000/svg">
            <path fill-rule="evenodd" clip-rule="evenodd"
                d="M0.751735 11.6483C0.526769 11.4233 0.400391 11.1181 0.400391 10.7999C0.400391 10.4817 0.526769 10.1765 0.751735 9.9515L4.70333 5.9999L0.751735 2.0483C0.533145 1.82198 0.412191 1.51886 0.414925 1.20422C0.417659 0.889585 0.543862 0.58861 0.766352 0.366121C0.988842 0.143631 1.28982 0.0174279 1.60445 0.0146938C1.91909 0.0119597 2.22221 0.132913 2.44853 0.351503L7.24853 5.1515C7.4735 5.37654 7.59988 5.68171 7.59988 5.9999C7.59988 6.3181 7.4735 6.62327 7.24853 6.8483L2.44853 11.6483C2.2235 11.8733 1.91833 11.9996 1.60013 11.9996C1.28194 11.9996 0.976768 11.8733 0.751735 11.6483Z"
                fill="#9D9EA2" />
        </symbol>

        <symbol width="18" height="18" id="edit" viewBox="0 0 18 18" fill="none"
            xmlns="http://www.w3.org/2000/svg">
            <path
                d="M2 16H3.425L13.2 6.225L11.775 4.8L2 14.575V16ZM0 18V13.75L13.2 0.575C13.4 0.391667 13.6208 0.25 13.8625 0.15C14.1042 0.05 14.3583 0 14.625 0C14.8917 0 15.15 0.05 15.4 0.15C15.65 0.25 15.8667 0.4 16.05 0.6L17.425 2C17.625 2.18333 17.7708 2.4 17.8625 2.65C17.9542 2.9 18 3.15 18 3.4C18 3.66667 17.9542 3.92083 17.8625 4.1625C17.7708 4.40417 17.625 4.625 17.425 4.825L4.25 18H0ZM12.475 5.525L11.775 4.8L13.2 6.225L12.475 5.525Z"
                fill="#5F6368" />
        </symbol>

        <symbol width="19" height="17" id="character-edit" viewBox="0 0 19 17" fill="none"
            xmlns="http://www.w3.org/2000/svg">
            <path
                d="M0 16V13.2C0 12.6333 0.145833 12.1125 0.4375 11.6375C0.729167 11.1625 1.11667 10.8 1.6 10.55C2.63333 10.0333 3.68333 9.64583 4.75 9.3875C5.81667 9.12917 6.9 9 8 9C8.61667 9 9.225 9.0375 9.825 9.1125C10.425 9.1875 11.025 9.30833 11.625 9.475L9.95 11.175C9.61667 11.125 9.29167 11.0833 8.975 11.05C8.65833 11.0167 8.33333 11 8 11C7.06667 11 6.14167 11.1125 5.225 11.3375C4.30833 11.5625 3.4 11.9 2.5 12.35C2.35 12.4333 2.22917 12.55 2.1375 12.7C2.04583 12.85 2 13.0167 2 13.2V14H8V16H0ZM10 17V13.925L15.525 8.425C15.675 8.275 15.8417 8.16667 16.025 8.1C16.2083 8.03333 16.3917 8 16.575 8C16.775 8 16.9667 8.0375 17.15 8.1125C17.3333 8.1875 17.5 8.3 17.65 8.45L18.575 9.375C18.7083 9.525 18.8125 9.69167 18.8875 9.875C18.9625 10.0583 19 10.2417 19 10.425C19 10.6083 18.9667 10.7958 18.9 10.9875C18.8333 11.1792 18.725 11.35 18.575 11.5L13.075 17H10ZM11.5 15.5H12.45L15.475 12.45L15.025 11.975L14.55 11.525L11.5 14.55V15.5ZM15.025 11.975L14.55 11.525L15.475 12.45L15.025 11.975ZM8 8C6.9 8 5.95833 7.60833 5.175 6.825C4.39167 6.04167 4 5.1 4 4C4 2.9 4.39167 1.95833 5.175 1.175C5.95833 0.391667 6.9 0 8 0C9.1 0 10.0417 0.391667 10.825 1.175C11.6083 1.95833 12 2.9 12 4C12 5.1 11.6083 6.04167 10.825 6.825C10.0417 7.60833 9.1 8 8 8ZM8 6C8.55 6 9.02083 5.80417 9.4125 5.4125C9.80417 5.02083 10 4.55 10 4C10 3.45 9.80417 2.97917 9.4125 2.5875C9.02083 2.19583 8.55 2 8 2C7.45 2 6.97917 2.19583 6.5875 2.5875C6.19583 2.97917 6 3.45 6 4C6 4.55 6.19583 5.02083 6.5875 5.4125C6.97917 5.80417 7.45 6 8 6Z"
                fill="#5F6368" />
        </symbol>

        <symbol width="18" height="13" id="check" viewBox="0 0 18 13" fill="none"
            xmlns="http://www.w3.org/2000/svg">
            <path
                d="M6.54998 13.0001L0.849976 7.3001L2.27498 5.8751L6.54998 10.1501L15.725 0.975098L17.15 2.4001L6.54998 13.0001Z"
                fill="#5F6368" />
        </symbol>

        <symbol width="14" height="14" id="close" viewBox="0 0 14 14" fill="none"
            xmlns="http://www.w3.org/2000/svg">
            <path
                d="M1.4 14L0 12.6L5.6 7L0 1.4L1.4 0L7 5.6L12.6 0L14 1.4L8.4 7L14 12.6L12.6 14L7 8.4L1.4 14Z"
                fill="#5F6368" />
        </symbol>

        <symbol width="18" height="18" id="logout" viewBox="0 0 18 18" fill="none"
            xmlns="http://www.w3.org/2000/svg">
            <path
                d="M2 18C1.45 18 0.979167 17.8042 0.5875 17.4125C0.195833 17.0208 0 16.55 0 16V2C0 1.45 0.195833 0.979167 0.5875 0.5875C0.979167 0.195833 1.45 0 2 0H9V2H2V16H9V18H2ZM13 14L11.625 12.55L14.175 10H6V8H14.175L11.625 5.45L13 4L18 9L13 14Z"
                fill="#5F6368" />
        </symbol>

        <symbol width="20" height="20" id="spinner" viewBox="0 0 20 20" fill="none"
            xmlns="http://www.w3.org/2000/svg">
            <path
                d="M10 20C8.63333 20 7.34167 19.7375 6.125 19.2125C4.90833 18.6875 3.84583 17.9708 2.9375 17.0625C2.02917 16.1542 1.3125 15.0917 0.7875 13.875C0.2625 12.6583 0 11.3667 0 10C0 8.61667 0.2625 7.32083 0.7875 6.1125C1.3125 4.90417 2.02917 3.84583 2.9375 2.9375C3.84583 2.02917 4.90833 1.3125 6.125 0.7875C7.34167 0.2625 8.63333 0 10 0C10.2833 0 10.5208 0.0958333 10.7125 0.2875C10.9042 0.479167 11 0.716667 11 1C11 1.28333 10.9042 1.52083 10.7125 1.7125C10.5208 1.90417 10.2833 2 10 2C7.78333 2 5.89583 2.77917 4.3375 4.3375C2.77917 5.89583 2 7.78333 2 10C2 12.2167 2.77917 14.1042 4.3375 15.6625C5.89583 17.2208 7.78333 18 10 18C12.2167 18 14.1042 17.2208 15.6625 15.6625C17.2208 14.1042 18 12.2167 18 10C18 9.71667 18.0958 9.47917 18.2875 9.2875C18.4792 9.09583 18.7167 9 19 9C19.2833 9 19.5208 9.09583 19.7125 9.2875C19.9042 9.47917 20 9.71667 20 10C20 11.3667 19.7375 12.6583 19.2125 13.875C18.6875 15.0917 17.9708 16.1542 17.0625 17.0625C16.1542 17.9708 15.0958 18.6875 13.8875 19.2125C12.6792 19.7375 11.3833 20 10 20Z"
                fill="#5F6368" />
        </symbol>


    </defs>
</svg>